#!OML:ASF F:\VICON\USERDATA\INSTALL\rory3\rory3.ASF
:FULLY-SPECIFIED
:DEGREES
224
root 0.964892 16.1547 -1.86097 1.83277 5.68393 4.12821
lowerback 19.3083 -0.739416 -2.10015
upperback 2.81365 -1.30006 1.07387
thorax -7.68911 -0.548165 2.6869
lowerneck -13.27 -2.54039 -6.17859
upperneck -0.379706 -2.69267 6.66444
head 2.44663 -1.13024 3.16467
rclavicle -2.18663e-015 -2.38542e-015
rhumerus -29.2943 -17.3229 -69.5909
rradius 20.634
rwrist 21.8411
rhand -28.0133 -4.71674
rfingers 7.12502
rthumb -1.3988 -34.6919
lclavicle -2.18663e-015 -2.38542e-015
lhumerus -32.7497 0.898787 81.7447
lradius 24.5182
lwrist -11.5641
lhand -24.7296 23.187
lfingers 7.12502
lthumb 1.77273 53.1594
rfemur -29.7401 1.87662 14.7326
rtibia 73.483
rfoot -40.7616 -19.1787
rtoes -10.9844
lfemur -31.0533 3.17958 -25.5286
ltibia 69.9232
lfoot -34.6323 5.32426
ltoes -9.93105
225
root 0.972551 16.0159 -1.86821 1.61341 6.26514 3.86398
lowerback 19.4237 -0.861243 -1.57476
upperback 3.00905 -1.33725 1.22518
thorax -7.54538 -0.581829 2.55924
lowerneck -13.5766 -2.59024 -6.19509
upperneck -0.0824663 -2.7419 6.44338
head 2.60273 -1.15718 3.09085
rclavicle 2.18663e-014 5.56597e-015
rhumerus -29.2491 -18.6549 -69.1125
rradius 19.8561
rwrist 22.9804
rhand -28.1839 -7.19767
rfingers 7.12502
rthumb -1.56353 -37.1717
lclavicle 2.18663e-014 5.56597e-015
lhumerus -32.2912 1.76212 81.4887
lradius 23.8192
lwrist -13.0892
lhand -23.8798 23.6396
lfingers 7.12502
lthumb 2.59341 53.6035
rfemur -30.3356 1.50944 15.0037
rtibia 75.3118
rfoot -40.9232 -19.4266
rtoes -13.9185
lfemur -31.6676 2.93326 -25.4581
ltibia 71.7378
lfoot -36.0548 5.67295
ltoes -9.27503
226
root 0.964886 15.8901 -1.88962 1.31875 6.72556 3.77464
lowerback 19.8494 -0.87861 -1.44834
upperback 3.18227 -1.32421 1.35399
thorax -7.58655 -0.576979 2.6315
lowerneck -14.1921 -2.64705 -6.20376
upperneck 0.665492 -2.80539 6.5764
head 2.64968 -1.16012 2.82785
rclavicle -1.53064e-014 1.11319e-014
rhumerus -29.0923 -19.6539 -68.8114
rradius 19.0497
rwrist 23.8576
rhand -28.9698 -3.99911
rfingers 7.12502
rthumb -2.32253 -33.9662
lclavicle -1.53064e-014 1.11319e-014
lhumerus -31.8995 2.74095 81.1902
lradius 23.1695
lwrist -14.3711
lhand -23.4737 23.7277
lfingers 7.12502
lthumb 2.9856 53.6866
rfemur -30.9085 1.44116 15.0723
rtibia 77.0959
rfoot -40.7679 -19.254
rtoes -15.6387
lfemur -32.2159 2.62377 -25.3953
ltibia 73.3018
lfoot -36.8122 5.58226
ltoes -8.99344
227
root 0.954468 15.7804 -1.90933 1.03922 7.19734 3.7226
lowerback 20.2494 -0.912846 -1.35309
upperback 3.32882 -1.34238 1.43718
thorax -7.6407 -0.586416 2.68028
lowerneck -14.4419 -2.67002 -6.09872
upperneck 0.883622 -2.84038 6.42177
head 2.7519 -1.17829 2.75877
rclavicle -3.83654e-014 1.74931e-014
rhumerus -28.9042 -20.4376 -68.5998
rradius 18.379
rwrist 25.1287
rhand -29.59 -4.1691
rfingers 7.12502
rthumb -2.92153 -34.1288
lclavicle -3.83654e-014 1.74931e-014
lhumerus -31.6189 3.5327 80.9103
lradius 22.5807
lwrist -15.1071
lhand -23.4362 23.5856
lfingers 7.12502
lthumb 3.02183 53.5439
rfemur -31.4127 1.47773 15.0748
rtibia 78.8383
rfoot -39.4222 -19.9651
rtoes -17.9653
lfemur -32.7402 2.1686 -25.2887
ltibia 74.7109
lfoot -37.1574 5.56262
ltoes -8.93732
228
root 0.949953 15.6931 -1.92432 0.788692 7.75758 3.60739
lowerback 20.5778 -1.00417 -1.15067
upperback 3.43014 -1.40703 1.55908
thorax -7.7042 -0.619911 2.72143
lowerneck -14.5555 -2.65205 -6.21427
upperneck 1.08094 -2.80391 6.53268
head 2.83082 -1.15357 2.81298
rclavicle -9.74045e-015 -7.95139e-016
rhumerus -28.8038 -20.8233 -68.3807
rradius 18.0007
rwrist 26.7303
rhand -25.7869 -6.73161
rfingers 7.12502
rthumb 0.751526 -36.71
lclavicle -9.74045e-015 -7.95139e-016
lhumerus -31.4302 4.16723 80.7567
lradius 22.1193
lwrist -15.3373
lhand -23.3184 22.9344
lfingers 7.12502
lthumb 3.1356 52.8911
rfemur -31.8665 1.40511 15.1146
rtibia 80.4424
rfoot -39.574 -20.0381
rtoes -17.2042
lfemur -33.2143 1.56396 -25.115
ltibia 75.9462
lfoot -37.2753 5.62238
ltoes -9.53303
229
root 0.947558 15.6121 -1.9403 0.56653 8.40271 3.50797
lowerback 20.9376 -1.1011 -0.930332
upperback 3.48303 -1.47395 1.66891
thorax -7.83766 -0.653462 2.74276
lowerneck -14.5543 -2.65282 -6.35303
upperneck 1.17205 -2.79946 6.80036
head 2.86543 -1.14027 2.91816
rclavicle -6.36111e-015 0
rhumerus -28.75 -20.5346 -68.444
rradius 17.765
rwrist 27.3188
rhand -25.0298 -5.81302
rfingers 7.12502
rthumb 1.48275 -35.7876
lclavicle -6.36111e-015 0
lhumerus -31.3523 4.37011 80.7887
lradius 21.9551
lwrist -14.8765
lhand -23.2037 22.3718
lfingers 7.12502
lthumb 3.24637 52.3268
rfemur -32.3494 1.14241 15.0926
rtibia 81.8922
rfoot -39.2197 -19.8139
rtoes -18.338
lfemur -33.6007 0.934339 -24.9539
ltibia 77.0524
lfoot -37.4399 5.2086
ltoes -10.031
230
root 0.9438 15.542 -1.95107 0.410189 8.9504 3.67743
lowerback 21.2448 -1.11792 -0.984162
upperback 3.51968 -1.50575 1.67105
thorax -7.95814 -0.664556 2.79354
lowerneck -14.4044 -2.67055 -6.28622
upperneck 1.05339 -2.84389 6.91241
head 2.81077 -1.1599 2.93992
rclavicle 3.77691e-015 8.74653e-015
rhumerus -28.6624 -19.7086 -68.7862
rradius 17.517
rwrist 27.0045
rhand -24.0434 -4.9872
rfingers 7.12502
rthumb 2.4354 -34.953
lclavicle 3.77691e-015 8.74653e-015
lhumerus -31.3 4.1693 80.9129
lradius 21.934
lwrist -14.1498
lhand -22.9737 22.0516
lfingers 7.12502
lthumb 3.4685 52.0031
rfemur -32.8131 0.871939 14.7323
rtibia 83.1899
rfoot -38.8296 -19.008
rtoes -19.6595
lfemur -33.8454 0.430143 -25.1027
ltibia 77.9685
lfoot -37.6638 4.6465
ltoes -9.64345
231
root 0.938944 15.5044 -1.95515 0.260723 9.29718 3.77554
lowerback 21.4259 -1.06613 -0.997629
upperback 3.57424 -1.44168 1.65235
thorax -7.99824 -0.632749 2.76771
lowerneck -14.1634 -2.69326 -6.12966
upperneck 0.927794 -2.91478 7.03567
head 2.74077 -1.19359 2.94935
rclavicle -2.56432e-014 7.15625e-015
rhumerus -28.6283 -18.5888 -69.2444
rradius 17.2874
rwrist 26.6915
rhand -23.1383 -3.79241
rfingers 7.12502
rthumb 3.30953 -33.7465
lclavicle -2.56432e-014 7.15625e-015
lhumerus -31.245 3.76216 81.047
lradius 21.9762
lwrist -13.4784
lhand -22.6601 21.7186
lfingers 7.12502
lthumb 3.77135 51.665
rfemur -33.1605 0.768255 14.5084
rtibia 84.2223
rfoot -38.3527 -18.5863
rtoes -20.1669
lfemur -34.0422 0.199991 -25.1953
ltibia 78.634
lfoot -37.7374 4.54652
ltoes -9.55749
232
root 0.931113 15.4867 -1.95836 0.140095 9.49205 3.7493
lowerback 21.4999 -0.948533 -1.02108
upperback 3.65627 -1.28774 1.70864
thorax -7.95377 -0.558525 2.80045
lowerneck -13.8867 -2.73431 -6.11693
upperneck 0.737918 -2.98926 7.26486
head 2.65037 -1.22711 3.01496
rclavicle 3.24019e-014 2.38542e-015
rhumerus -28.5471 -18.0662 -69.435
rradius 17.0784
rwrist 27.0079
rhand -22.1685 -2.18697
rfingers 7.12502
rthumb 4.24606 -32.1244
lclavicle 3.24019e-014 2.38542e-015
lhumerus -31.2769 3.40679 81.2444
lradius 22.2953
lwrist -12.8332
lhand -22.5 21.2656
lfingers 7.12502
lthumb 3.92597 51.2092
rfemur -33.4605 0.81566 14.4665
rtibia 85.0124
rfoot -37.8333 -18.49
rtoes -20.1655
lfemur -34.273 0.188433 -25.1627
ltibia 79.1072
lfoot -37.6173 4.7643
ltoes -10.1418
233
root 0.92292 15.4696 -1.96263 0.144546 9.6579 3.82789
lowerback 21.5141 -0.792244 -1.19238
upperback 3.71184 -1.11615 1.77383
thorax -7.90459 -0.471991 2.92162
lowerneck -13.7297 -2.83066 -6.2127
upperneck 0.561813 -3.1143 7.51517
head 2.58841 -1.28367 3.10066
rclavicle -1.03368e-014 -1.90833e-014
rhumerus -28.4946 -17.8482 -69.4877
rradius 17.1295
rwrist 27.2771
rhand -20.7319 -0.98861
rfingers 7.12502
rthumb 5.6332 -30.8937
lclavicle -1.03368e-014 -1.90833e-014
lhumerus -31.3376 3.10814 81.496
lradius 22.7482
lwrist -12.2724
lhand -22.549 20.9244
lfingers 7.12502
lthumb 3.8786 50.8689
rfemur -33.8477 0.80349 14.3047
rtibia 85.6607
rfoot -37.3333 -18.2755
rtoes -20.9444
lfemur -34.5654 0.203204 -25.2509
ltibia 79.449
lfoot -37.4185 4.75522
ltoes -10.3353
234
root 0.918037 15.4608 -1.96099 0.0841416 9.75362 4.00059
lowerback 21.5241 -0.629922 -1.39862
upperback 3.8434 -0.950859 1.771
thorax -7.77143 -0.390529 2.98869
lowerneck -13.8015 -2.95396 -6.21658
upperneck 0.507322 -3.28068 7.70094
head 2.59917 -1.35773 3.14701
rclavicle 5.56597e-015 -6.36111e-015
rhumerus -28.4229 -17.6159 -69.6449
rradius 17.3395
rwrist 27.2593
rhand -19.625 -0.208191
rfingers 7.12502
rthumb 6.7018 -30.0821
lclavicle 5.56597e-015 -6.36111e-015
lhumerus -31.2791 2.62418 81.7515
lradius 23.1587
lwrist -11.6945
lhand -22.6227 20.8838
lfingers 7.12502
lthumb 3.80748 50.8296
rfemur -34.0412 0.760246 14.0516
rtibia 86.1575
rfoot -36.8921 -17.8126
rtoes -21.8779
lfemur -34.6383 0.275971 -25.4569
ltibia 79.6582
lfoot -37.255 4.69098
ltoes -10.3723
